<?xml version="1.0" encoding="UTF-8"?>
<svg width="128" height="128" viewBox="0 0 128 128" fill="none" xmlns="http://www.w3.org/2000/svg" role="img" aria-labelledby="title desc">
  <title id="title">AAA Event</title>
  <desc id="desc">Stylized AAA monogram inside a rounded square, representing a QR scanner app</desc>
  <defs>
    <linearGradient id="g" x1="0" y1="0" x2="128" y2="128" gradientUnits="userSpaceOnUse">
      <stop offset="0%" stop-color="#2E7BFF"/>
      <stop offset="100%" stop-color="#6CC6FF"/>
    </linearGradient>
  </defs>
  <rect x="6" y="6" width="116" height="116" rx="24" fill="url(#g)"/>
  <!-- Corner scan brackets -->
  <path d="M26 50 V30 H50" stroke="white" stroke-width="6" stroke-linecap="round"/>
  <path d="M78 30 H102 V50" stroke="white" stroke-width="6" stroke-linecap="round"/>
  <path d="M26 78 V98 H50" stroke="white" stroke-width="6" stroke-linecap="round"/>
  <path d="M102 78 V98 H78" stroke="white" stroke-width="6" stroke-linecap="round"/>
  <!-- AAA Monogram -->
  <g fill="white">
    <path d="M64 86 L52 48 H44 L32 86 H39 L42 76 H54 L57 86 H64 Z M43.5 70 L48 56 L52.5 70 H43.5 Z"/>
    <path d="M96 86 L84 48 H76 L64 86 H71 L74 76 H86 L89 86 H96 Z M75.5 70 L80 56 L84.5 70 H75.5 Z"/>
  </g>
</svg>
